<?xml version="1.0" standalone="no"?>
<!DOCTYPE svg PUBLIC "-//W3C//DTD SVG 20010904//EN"
 "http://www.w3.org/TR/2001/REC-SVG-20010904/DTD/svg10.dtd">
<svg version="1.0" xmlns="http://www.w3.org/2000/svg"
 width="88.000000pt" height="88.000000pt" viewBox="0 0 88.000000 88.000000"
 preserveAspectRatio="xMidYMid meet">
<metadata>
Created by potrace 1.16, written by Peter Selinger 2001-2019
</metadata>
<g transform="translate(0.000000,88.000000) scale(0.100000,-0.100000)"
fill="#4f4e4a" stroke="none">
<path d="M0 440 l0 -440 440 0 440 0 0 440 0 440 -440 0 -440 0 0 -440z m360
100 l74 -145 36 148 35 147 57 0 c32 0 58 -2 58 -3 0 -2 -18 -91 -40 -197 -22
-106 -40 -195 -40 -197 0 -2 35 -3 78 -1 71 3 77 5 80 26 3 20 9 22 63 22 53
0 60 -2 55 -17 -2 -10 -10 -44 -17 -76 l-12 -57 -117 0 c-64 0 -150 -3 -191
-6 l-74 -7 -54 99 c-30 55 -66 119 -80 143 l-25 44 -35 -139 -36 -139 -44 -3
c-24 -2 -49 -1 -56 2 -10 3 1 62 46 243 33 131 62 244 64 251 3 9 20 12 52 10
l48 -3 75 -145z"/>
</g>
</svg>
